<svg xmlns="http://www.w3.org/2000/svg" viewBox="0 0 100 100" fill="none">
  <!-- Outer fur/hair shape -->
  <path d="M50 5C25 5 10 25 10 50C10 75 25 95 50 95C75 95 90 75 90 50C90 25 75 5 50 5Z" fill="white" stroke="#1e3a5f" stroke-width="3"/>

  <!-- Jagged fur edges - top -->
  <path d="M25 20C28 25 32 22 35 18C38 22 42 25 45 20C48 25 52 25 55 20C58 25 62 22 65 18C68 22 72 25 75 20" stroke="#1e3a5f" stroke-width="2.5" fill="none" stroke-linecap="round"/>

  <!-- Left horn -->
  <path d="M28 18L22 8C21 5 24 3 26 5L32 15" fill="#4a90a4" stroke="#1e3a5f" stroke-width="2"/>

  <!-- Right horn -->
  <path d="M72 18L78 8C79 5 76 3 74 5L68 15" fill="#4a90a4" stroke="#1e3a5f" stroke-width="2"/>

  <!-- Inner face - light blue -->
  <ellipse cx="50" cy="55" rx="28" ry="30" fill="#d4e8f0"/>

  <!-- Left eye -->
  <circle cx="40" cy="48" r="3" fill="#1e3a5f"/>

  <!-- Right eye -->
  <circle cx="60" cy="48" r="3" fill="#1e3a5f"/>

  <!-- Smile -->
  <path d="M38 62C42 68 58 68 62 62" stroke="#1e3a5f" stroke-width="2.5" fill="none" stroke-linecap="round"/>

  <!-- Nose dot -->
  <circle cx="50" cy="55" r="1.5" fill="#1e3a5f"/>
</svg>
